# xmcd
#
# Track frame offsets: 
#        150
#        18202
#        40898
#        60946
#        78520
#        100605
#        117283
#        137223
#        154205
#        172198
#        174904
#        195717
#        210509
#        231874
#
# Disc length: 3384 seconds
#
# Revision: 0
# Processed by: cddbd v1.5.2PL0 Copyright (c) Steve Scherf et al.
# Submitted via: ExactAudioCopy v0.99pb3
#
DISCID=b10d360e
DTITLE=이현우 - Heart Blossom
DYEAR=2007
DGENRE=Ballad
TTITLE0=그래서 말인데
TTITLE1=Old fashion love
TTITLE2=거짓말처럼 기적처럼
TTITLE3=하루만큼
TTITLE4=여름이 가기 전에
TTITLE5=개화
TTITLE6=마취
TTITLE7=I'm Your man
TTITLE8=별의 죽음
TTITLE9=BLUE FLAVOR
TTITLE10=Old fashion love (unquantize mix)
TTITLE11=개화 (unquantize mix)
TTITLE12=거짓말처럼 기적처럼 (unquantize mix)
TTITLE13=마취 (unquantize mix)
EXTD=
EXTT0=
EXTT1=
EXTT2=
EXTT3=
EXTT4=
EXTT5=
EXTT6=
EXTT7=
EXTT8=
EXTT9=
EXTT10=
EXTT11=
EXTT12=
EXTT13=
PLAYORDER=
